<svg xmlns="http://www.w3.org/2000/svg" viewBox="0 0 1920 1080" width="1920" height="1080">
  <defs>
    <linearGradient id="sky" x1="0" y1="0" x2="0" y2="1">
      <stop offset="0" stop-color="#f4a261"/>
      <stop offset="0.45" stop-color="#f6c28b"/>
      <stop offset="0.75" stop-color="#fbe3c0"/>
      <stop offset="1" stop-color="#fdeccf"/>
    </linearGradient>
    <radialGradient id="sun" cx="0.72" cy="0.42" r="0.35">
      <stop offset="0" stop-color="#fff3d6" stop-opacity="0.95"/>
      <stop offset="1" stop-color="#fff3d6" stop-opacity="0"/>
    </radialGradient>
    <linearGradient id="grass" x1="0" y1="0" x2="0" y2="1">
      <stop offset="0" stop-color="#6b8f4e"/>
      <stop offset="1" stop-color="#3f5f37"/>
    </linearGradient>
    <linearGradient id="path" x1="0" y1="0" x2="0" y2="1">
      <stop offset="0" stop-color="#d9b48a"/>
      <stop offset="1" stop-color="#b98d63"/>
    </linearGradient>
    <filter id="grain" x="0" y="0" width="100%" height="100%">
      <feTurbulence type="fractalNoise" baseFrequency="0.9" numOctaves="2" seed="4"/>
      <feColorMatrix values="0 0 0 0 0.3  0 0 0 0 0.2  0 0 0 0 0.1  0 0 0 0.09 0"/>
    </filter>
    <filter id="blur"><feGaussianBlur stdDeviation="3"/></filter>
    <filter id="soft"><feGaussianBlur stdDeviation="14"/></filter>
  </defs>

  <!-- sky + sun glow -->
  <rect width="1920" height="1080" fill="url(#sky)"/>
  <rect width="1920" height="1080" fill="url(#sun)"/>
  <circle cx="1380" cy="450" r="85" fill="#fff6e0" opacity="0.9" filter="url(#blur)"/>

  <!-- far skyline (hazy) -->
  <g fill="#c98f6b" opacity="0.55" filter="url(#blur)">
    <rect x="60" y="470" width="90" height="260"/><rect x="160" y="400" width="70" height="330"/>
    <rect x="240" y="500" width="110" height="230"/><rect x="360" y="430" width="80" height="300"/>
    <rect x="450" y="380" width="60" height="350"/><polygon points="450,380 480,330 510,380"/>
    <rect x="530" y="480" width="120" height="250"/><rect x="670" y="420" width="85" height="310"/>
    <rect x="770" y="510" width="100" height="220"/>
    <rect x="1010" y="440" width="95" height="290"/><rect x="1120" y="370" width="70" height="360"/>
    <polygon points="1120,370 1155,300 1190,370"/>
    <rect x="1210" y="490" width="120" height="240"/><rect x="1480" y="410" width="90" height="320"/>
    <rect x="1590" y="360" width="75" height="370"/><rect x="1680" y="470" width="110" height="260"/>
    <rect x="1800" y="420" width="90" height="310"/>
  </g>
  <!-- nearer buildings with warm windows -->
  <g fill="#a86a52" opacity="0.75">
    <rect x="0" y="540" width="170" height="220"/><rect x="190" y="580" width="130" height="180"/>
    <rect x="1700" y="520" width="220" height="240"/><rect x="1560" y="590" width="120" height="170"/>
  </g>
  <g fill="#ffd98a" opacity="0.8">
    <rect x="20" y="570" width="18" height="26"/><rect x="60" y="570" width="18" height="26"/><rect x="100" y="570" width="18" height="26"/>
    <rect x="20" y="620" width="18" height="26"/><rect x="100" y="620" width="18" height="26"/><rect x="60" y="670" width="18" height="26"/>
    <rect x="1730" y="550" width="18" height="26"/><rect x="1770" y="550" width="18" height="26"/><rect x="1810" y="550" width="18" height="26"/>
    <rect x="1730" y="600" width="18" height="26"/><rect x="1810" y="600" width="18" height="26"/><rect x="1770" y="650" width="18" height="26"/>
    <rect x="1860" y="600" width="18" height="26"/><rect x="1860" y="650" width="18" height="26"/>
  </g>

  <!-- distant tree line -->
  <g fill="#587a45" opacity="0.9" filter="url(#blur)">
    <ellipse cx="200" cy="740" rx="260" ry="120"/><ellipse cx="520" cy="750" rx="240" ry="100"/>
    <ellipse cx="900" cy="760" rx="300" ry="90"/><ellipse cx="1300" cy="750" rx="260" ry="100"/>
    <ellipse cx="1650" cy="740" rx="280" ry="120"/>
  </g>

  <!-- lawn -->
  <rect x="0" y="740" width="1920" height="340" fill="url(#grass)"/>
  <!-- winding path -->
  <path d="M780 1080 C 860 940, 1000 860, 1180 790 C 1240 768, 1290 752, 1330 742 L 1380 742 C 1320 770, 1240 800, 1150 850 C 1050 910, 1030 1000, 1060 1080 Z" fill="url(#path)"/>

  <!-- left big tree (foreground framing) -->
  <g>
    <path d="M205 1080 C 215 860, 190 700, 230 520 L 262 520 C 250 700, 285 860, 290 1080 Z" fill="#4a3426"/>
    <g fill="#7b9a3c"><ellipse cx="240" cy="430" rx="260" ry="200"/><ellipse cx="90" cy="520" rx="180" ry="140"/><ellipse cx="400" cy="500" rx="190" ry="140"/></g>
    <g fill="#e29a2f" opacity="0.85"><ellipse cx="150" cy="400" rx="90" ry="70"/><ellipse cx="350" cy="470" rx="100" ry="70"/><ellipse cx="260" cy="320" rx="80" ry="55"/></g>
    <g fill="#c4572a" opacity="0.8"><ellipse cx="60" cy="470" rx="60" ry="45"/><ellipse cx="420" cy="380" rx="60" ry="45"/></g>
  </g>
  <!-- right tree -->
  <g>
    <path d="M1590 1080 C 1600 900, 1585 760, 1612 640 L 1640 640 C 1632 760, 1655 900, 1660 1080 Z" fill="#4a3426"/>
    <g fill="#8a9f3a"><ellipse cx="1625" cy="560" rx="230" ry="170"/><ellipse cx="1790" cy="610" rx="170" ry="130"/></g>
    <g fill="#e8a53a" opacity="0.85"><ellipse cx="1560" cy="520" rx="90" ry="60"/><ellipse cx="1760" cy="570" rx="80" ry="55"/></g>
  </g>

  <!-- lamp post (NYC style) -->
  <g>
    <rect x="1198" y="470" width="10" height="320" fill="#1f2a2a"/>
    <rect x="1190" y="780" width="26" height="14" fill="#1f2a2a"/>
    <path d="M1203 470 q-28 -22 -50 -2" stroke="#1f2a2a" stroke-width="7" fill="none"/>
    <ellipse cx="1150" cy="480" rx="18" ry="22" fill="#fff0b8"/>
    <ellipse cx="1150" cy="480" rx="60" ry="60" fill="#ffe9a0" opacity="0.28" filter="url(#soft)"/>
  </g>

  <!-- park bench -->
  <g transform="translate(560 800)">
    <ellipse cx="170" cy="150" rx="210" ry="22" fill="#000" opacity="0.2" filter="url(#blur)"/>
    <rect x="0" y="40" width="340" height="14" fill="#7a4b2a"/><rect x="0" y="62" width="340" height="14" fill="#7a4b2a"/>
    <rect x="0" y="-10" width="340" height="12" fill="#7a4b2a"/><rect x="0" y="12" width="340" height="12" fill="#7a4b2a"/>
    <rect x="12" y="-10" width="10" height="150" fill="#262626"/><rect x="318" y="-10" width="10" height="150" fill="#262626"/>
    <rect x="6" y="40" width="12" height="100" fill="#262626"/><rect x="322" y="40" width="12" height="100" fill="#262626"/>
  </g>

  <!-- saxophone silhouette resting on bench + vinyl vibe notes -->
  <g transform="translate(700 760) rotate(-8)" fill="#c58a1e" stroke="#7b5410" stroke-width="2">
    <path d="M0 0 C 40 0 55 30 55 70 C 55 110 70 130 100 130 C 130 130 145 105 140 80 L 168 80 C 175 125 150 160 100 160 C 45 160 25 120 25 70 C 25 45 15 30 0 28 Z"/>
    <ellipse cx="154" cy="78" rx="22" ry="9" fill="#e6b34a"/>
  </g>
  <g fill="#fff8e6" opacity="0.85" font-family="Georgia, serif" font-size="46">
    <text x="880" y="720">♪</text><text x="940" y="660" font-size="62">♫</text><text x="1010" y="600" font-size="40">♪</text>
  </g>

  <!-- light rays -->
  <g fill="#fff3d6" opacity="0.14">
    <polygon points="1380,450 900,0 1100,0"/><polygon points="1380,450 1250,0 1500,0"/><polygon points="1380,450 1600,0 1820,0"/>
  </g>
  <!-- warm vignette + grain -->
  <rect width="1920" height="1080" fill="#7a3b12" opacity="0.10"/>
  <rect width="1920" height="1080" filter="url(#grain)"/>
</svg>
